<svg width="50" height="50" viewBox="0 0 50 50" fill="none" xmlns="http://www.w3.org/2000/svg">
<path fill-rule="evenodd" clip-rule="evenodd" d="M28.4461 12.4775H9.49554V6.47261C9.49554 4.60392 4 6.47261 4 10.3467V36.7705C4 38.7303 5.12409 40.2002 6.75912 40.9978C7.7129 41.465 8.56448 41.3852 9.9043 41.3852C15.7518 41.3852 21.6107 41.3852 27.4582 41.3852C26.8224 42.3424 23.768 44.7466 23.768 45.4189C23.768 45.7721 24.0973 46 24.2563 46H45.4209C45.8297 46 46 45.6581 46 45.51V24.3505C46 23.9973 45.7502 23.6896 45.4209 23.6896C44.7851 23.6896 43.8994 25.1481 43.1273 25.6609V14.1297C43.1273 13.2523 43.2636 12.5914 42.4688 12.4889C41.3674 12.3522 39.1079 12.4775 37.8816 12.4775C38.6083 11.395 41.4015 9.401 41.6399 8.26155C41.9011 6.99677 41.0608 6.32446 40.4023 5.66358C39.4712 4.72924 39.0397 4 37.7113 4C36.7348 4 35.7129 5.31038 35.1452 5.86871L29.6042 11.4292C29.4112 11.6343 28.7186 12.4775 28.4461 12.4775ZM36.2238 6.64352C36.4396 6.32448 37.4728 5.21922 37.8816 5.21922C38.3244 5.21922 39.0057 6.06239 39.3009 6.34726C39.5848 6.63212 40.425 7.32718 40.425 7.77156C40.425 8.18176 39.335 9.21867 39.0284 9.42377L36.2238 6.64352ZM34.2595 8.62615L35.2814 7.55507L38.1541 10.4037L37.0868 11.4292L34.2595 8.62615ZM23.3593 25.1481C22.9959 24.6012 20.7705 22.7325 20.6569 22.2653C20.9862 21.7754 23.2003 19.8953 23.2003 19.5534C23.2003 18.9951 23.0187 18.8128 22.4623 18.8128C22.1103 18.8128 20.85 20.2257 20.5547 20.522C19.9416 21.1373 19.2376 21.6386 18.9424 22.5274L17.5231 26.5382C17.455 26.7433 17.3642 27.0168 17.296 27.2219C17.2052 27.484 17.0917 27.7119 17.0349 27.9512C16.5126 27.9512 15.9903 27.9512 15.4793 27.9512C15.15 27.9512 14.6845 27.8828 14.5028 28.2019C14.3439 28.4753 14.3212 29.1818 14.9911 29.1818H32.2157C32.704 29.1818 32.9765 28.2246 32.3406 27.9854C32.0454 27.8714 20.498 27.9512 20.0779 27.9512C20.3277 27.7347 21.0203 27.5865 21.4404 27.427C23.9951 26.4357 23.2003 27.1649 25.0625 25.2962L34.6569 15.668C34.9862 15.3375 35.2701 15.0526 35.5994 14.7222C35.7924 14.5285 36.3828 13.7992 36.644 13.7992H41.8102V26.8915C41.8102 27.1877 37.5977 31.2441 37.3139 31.5176L33.8735 34.9701C33.5896 35.255 32.8629 35.8019 32.8629 36.2691C32.8629 36.7021 33.2263 36.93 33.5669 36.873C34.0211 36.8047 35.5199 35.1297 35.8832 34.765C36.6099 34.0358 44.3763 26.1508 44.7624 25.8887V31.2442H43.5361C43.0138 31.2442 42.4347 32.5659 44.0243 32.5659H44.7624V34.3776H43.6156C42.7981 34.3776 42.7981 35.6083 43.6156 35.6083H44.7624V37.42H43.8654C42.6277 37.42 42.8435 38.7417 43.7064 38.7417H44.7737V40.5534C44.1606 40.5534 42.8094 40.3711 43.0138 41.3283C43.1614 41.9891 44.0698 41.8638 44.7737 41.8638V44.7466H25.9935C26.232 44.382 30.8305 39.847 31.6367 39.0494C31.8865 38.7987 32.3179 38.5138 32.3179 38.0808C32.3179 37.7276 32.0681 37.42 31.7388 37.42C31.0008 37.42 29.116 40.1318 28.6164 40.1318H9.08678C7.29278 40.1318 6.05515 39.3798 5.48743 37.8985C4.897 36.3603 5.64639 34.6967 6.88402 33.8877C7.27007 33.637 7.74696 33.4433 8.31468 33.3407C9.79075 33.0901 9.49554 33.7737 9.49554 28.2702C9.49554 27.9284 9.22304 27.5296 8.91647 27.5296C8.00811 27.5296 8.17843 28.5209 8.17843 29.421C8.17843 30.2984 8.17843 31.1758 8.17843 32.0532C7.14517 32.2924 6.62287 32.452 5.82806 33.0787C5.57827 33.2838 5.46472 33.4547 5.22628 33.6256V11.5659C5.22628 10.267 5.33982 9.30984 5.9189 8.54641C6.37308 7.94251 7.25872 7.19046 8.17843 7.1107V24.3163C8.17843 25.9344 8.06488 26.2876 8.99595 26.2876C9.2571 26.2876 9.48419 25.9343 9.48419 25.6267V13.7765H27.2084C26.6748 14.5741 23.768 16.8985 23.768 17.5594C23.768 18.0266 24.0633 18.2203 24.5061 18.2203C24.7559 18.2203 26.459 16.3858 26.7429 16.1009L31.0916 11.7368C31.614 11.2127 32.7835 9.91374 33.2831 9.57191C33.635 9.66306 35.9286 12.0673 36.0762 12.2838C35.974 12.6598 33.3058 15.1894 32.9765 15.5198C32.2044 16.3174 23.768 24.8746 23.3593 25.1481ZM19.9189 23.5073L22.2352 25.7976L20.4866 26.3901L19.3625 25.2165C19.4647 24.9886 19.5328 24.681 19.6464 24.3847C19.7599 24.0998 19.8848 23.8377 19.9189 23.5073Z" fill="#0F1C3D" stroke="#0F1C3D" stroke-width="0.5"/>
<path fill-rule="evenodd" clip-rule="evenodd" d="M34.1917 41.6128H40.9136C41.311 41.6128 41.5721 41.3507 41.5721 40.9519V34.2862C41.5721 33.5911 41.0271 33.6253 40.7546 33.6253C40.4707 33.6253 37.019 37.2601 36.7578 37.5108L33.8057 40.4734C33.3061 41.0089 33.6467 41.6128 34.1917 41.6128ZM40.2436 35.8358L40.2664 40.3822H35.7587L40.2436 35.8358Z" fill="#0F1C3D" stroke="#0F1C3D" stroke-width="0.5"/>
</svg>
