<svg width="50" height="50" viewBox="0 0 50 50" fill="none" xmlns="http://www.w3.org/2000/svg">
<path d="M7.32031 31.2507H12.4997C14.8009 31.2507 16.6664 29.3852 16.6664 27.084V22.9173C16.6664 20.6161 18.5319 18.7507 20.8331 18.7507H24.9997C27.3009 18.7507 29.1664 16.8852 29.1664 14.584V6.71875" stroke="#0F1C3D" stroke-width="2" stroke-linecap="round" stroke-linejoin="round"/>
<path d="M35.9375 40.6254C41.3794 40.6254 42.715 33.8531 45.8333 32.0537C43.5298 28.8976 39.8447 27.0471 35.9375 27.0845" stroke="#0F1C3D" stroke-width="2" stroke-linecap="round" stroke-linejoin="round"/>
<path d="M35.9368 40.6257C32.1974 40.6257 29.166 37.5942 29.166 33.8548C29.166 30.1154 32.1974 27.084 35.9368 27.084" stroke="#0F1C3D" stroke-width="2" stroke-linecap="round" stroke-linejoin="round"/>
<path d="M36.439 33.3672C32.5781 34.0131 29.1754 36.2739 27.084 39.583" stroke="#0F1C3D" stroke-width="2" stroke-linecap="round" stroke-linejoin="round"/>
<path d="M43.2699 20.8339C41.2112 11.7896 32.8468 5.61134 23.5969 6.30271C14.3471 6.99407 6.99407 14.3471 6.30271 23.5969C5.61134 32.8468 11.7896 41.2112 20.8339 43.2699" stroke="#0F1C3D" stroke-width="2" stroke-linecap="round" stroke-linejoin="round"/>
</svg>
