<svg width="50" height="50" viewBox="0 0 50 50" fill="none" xmlns="http://www.w3.org/2000/svg">
<path d="M34.3789 45.8418C29.1997 45.8418 25 41.6421 25 36.4629C25 31.2836 29.1997 27.084 34.3789 27.084C39.5602 27.084 43.7578 31.2836 43.7578 36.4629C43.7578 41.6421 39.5602 45.8418 34.3789 45.8418" stroke="#0F1C3D" stroke-width="2" stroke-linecap="round" stroke-linejoin="round"/>
<path d="M37.505 20.8316V16.3047C37.505 15.2001 37.0652 14.1392 36.2836 13.3577L30.3895 7.46353C29.608 6.68195 28.5471 6.24219 27.4425 6.24219H12.4946C10.1915 6.24219 8.32617 8.10755 8.32617 10.4106V39.5894C8.32617 41.8924 10.1915 43.7578 12.4946 43.7578H20.8314" stroke="#0F1C3D" stroke-width="2" stroke-linecap="round" stroke-linejoin="round"/>
<path d="M37.505 16.6632H29.1682C28.0177 16.6632 27.084 15.7295 27.084 14.579V6.24219" stroke="#0F1C3D" stroke-width="2" stroke-linecap="round" stroke-linejoin="round"/>
<path d="M37.8328 34.7383L33.5144 39.0567L30.9258 36.464" stroke="#0F1C3D" stroke-width="2" stroke-linecap="round" stroke-linejoin="round"/>
</svg>
